<svg id="Capa_1" xmlns="http://www.w3.org/2000/svg" viewBox="0 0 1000 1000"><style>.st0{fill:none;stroke:#fff;stroke-width:10;stroke-miterlimit:10}.st1{fill:#fff}.st2{fill:none;stroke:#000;stroke-width:18;stroke-miterlimit:10}.st3{fill:#e02229}.st4{fill-rule:evenodd;clip-rule:evenodd;fill:#fff}.st5{fill:#ec1c24}</style><path class="st0" d="M351.89 709.81l-21.66 33.69a20.1 20.1 0 0 0-3.19 10.85v16.27c0 3.12-.73 6.19-2.12 8.98l-20.09 40.19c-4.56 9.11-1.53 20.16 6.98 25.77 1.58 1.04 2.9 2.02 3.71 2.83 2.75 2.75 1.57 23.19.67 34.61-.39 5 1.09 9.93 4.17 13.88l14.34 18.43a20.06 20.06 0 0 0 20.05 7.3l17.21-3.69c12.5-2.68 24.28 6.85 24.28 19.63v3.24c0 17.36 20.55 26.53 33.47 14.95l70.37-63.09a20.072 20.072 0 0 0 6.57-17.01l-8.61-83.28c-1.06-10.23-9.68-18.01-19.97-18.01h-50.23c-11.09 0-20.07-8.99-20.07-20.07V730.1c0-7.6-4.3-14.55-11.1-17.95l-18.91-9.45c-9.18-4.57-20.33-1.51-25.87 7.11z"/><path class="st0" d="M498.02 793.37c-1.06-10.23-9.68-18.01-19.97-18.01h-39.63c-26.83 3.84-30.67-13.73-30.67-30.67v-8.02c0-11.62-6.56-22.24-16.95-27.43l-13.05-6.53-.12-.06c-5.6-2.75-8.03-9.38-4.94-14.8l12.79-22.44a10.6 10.6 0 0 1 9.21-5.35h47.71c2.45 0 4.82.85 6.71 2.4l30.29 24.78c4.85 3.97 5.22 11.26.78 15.7l-4.37 4.37c-6.68 6.68-1.95 18.09 7.5 18.09h73.36c6.55 0 11.53 5.88 10.46 12.34l-15.68 94.11a10.6 10.6 0 0 1-10.46 8.86h-28.37c-5.42 0-9.96-4.08-10.54-9.47l-4.06-37.87z"/><path class="st0" d="M615.57 632.89l19.79-19.79c1.11-1.11.32-3-1.24-3h-21.94c-.47 0-.91.19-1.24.51l-18.19 18.19c-.33.33-.78.51-1.24.51h-136.9c-.47 0-.91-.19-1.24-.51l-20.11-20.11c-.33-.33-.78-.51-1.24-.51H373.9c-.47 0-.91-.19-1.24-.51l-22.27-22.27c-.69-.69-1.8-.69-2.48 0l-10.73 10.73c-.33.33-.51.78-.51 1.24v58.03c0 .52.23 1.01.63 1.34l34.39 28.96c.79.67 1.99.53 2.57-.33 3.9-5.79 10.45-25.31 20.47-25.31h47.08c2.85 0 5.62.99 7.82 2.79l28.3 23.15c5.66 4.63 6.08 13.13.91 18.3-7.78 7.78-9.56 21.09 8.74 21.09h73.22c.47 0 .91-.19 1.24-.51l12.69-12.69c1.1-1.1 2.01-2.36 2.7-3.75l36.36-73.03a8.87 8.87 0 0 1 1.78-2.52z"/><path class="st0" d="M430.82 608.17v-51.88l11.53-7.69h65.34l11.53 19.22h30.75l21.13 21.14v28.82h32.67"/><path class="st0" d="M506.7 544.17l-6.62-29.77a3.48 3.48 0 0 1-.09-.79v-59.59c0-.97-.38-1.89-1.07-2.57l-23.26-23.26a3.645 3.645 0 0 0-5.15 0l-25.6 25.6a3.645 3.645 0 0 0 0 5.15l7.89 7.89a3.65 3.65 0 0 1 1.07 2.57v40.24c0 .35-.05.71-.15 1.05l-9.97 33.24c-.7 2.34 1.05 4.69 3.49 4.69h55.91c2.33-.02 4.06-2.18 3.55-4.45z"/><path class="st0" d="M446.19 452.51l-37.56-37.56a6.67 6.67 0 0 1 0-9.44l13.62-13.62a6.67 6.67 0 0 1 9.44 0l32.84 32.84a6.67 6.67 0 0 1 0 9.44l-18.34 18.34"/><path class="st0" d="M416.15 385.2l-13.77-11.48a8.304 8.304 0 0 0-5.31-1.92h-72.35c-2.2 0-4.31.87-5.87 2.43l-9.15 9.15c-3.86 3.86-3.01 10.32 1.71 13.05l3.39 1.96a8.322 8.322 0 0 0 10.03-1.31l3.63-3.63a8.295 8.295 0 0 1 5.87-2.43h49.59c1.75 0 3.46.56 4.88 1.59l13.22 9.62c3.3 2.4 7.86 2.04 10.75-.84l3.93-3.93c3.45-3.47 3.2-9.14-.55-12.26zm243.82 534.3c2.16 0 4.24-.86 5.77-2.39l6.65-6.65c.38-.38.72-.8 1.02-1.24l13.95-20.93c.53-.79.94-1.66 1.18-2.58 2.2-8.63 21.39-56.71 22.78-60.18.06-.15.1-.27.15-.42L722.51 792c.28-.83.42-1.7.42-2.58v-14.05L721 710.03v-6.23c0-2.16-.86-4.24-2.39-5.77l-24.52-24.52c-3.18-3.18-3.18-8.35 0-11.53l7.22-7.22a8.151 8.151 0 0 0-5.76-13.92H616.5c-3.09 0-5.91 1.74-7.29 4.51l-28.32 56.63c-2.16 4.31-.12 9.54 4.38 11.26l26.54 10.15a8.152 8.152 0 0 1 5.24 7.61v27.35c0 2.16-.86 4.24-2.39 5.77l-20.39 20.39a8.15 8.15 0 0 0-2.39 5.77v50.54c0 2.16-.86 4.24-2.39 5.77l-14.8 14.8a8.15 8.15 0 0 0-2.39 5.77v28.56c0 2.16.86 4.24 2.39 5.77l11.88 11.88c2.11 2.11 4.94 3.35 7.92 3.47l65.48 2.66z"/><path class="st1" d="M407.57 501.92c4.14 5.93 5.56 12.55 4.08 19.69-1.08 5.25-3.74 9.67-7.74 13.25-7.76 6.94-20.61 9.25-31.89 1.05l-3.53-3.29c-1.2-2.02-2.61-3.6-4.65-4.79-14.04-8.16-28.02-16.43-42.02-24.66-.44-.26-.9-.5-1.31-.81-.99-.77-1.25-2.03-.66-3.1.55-1.01 1.83-1.39 3.03-.86.53.23 1.01.56 1.51.85 12.29 7.22 24.57 14.44 36.86 21.66.53.31 1.08.61 1.83 1.02-.19-1.78-.27-3.3-.54-4.78-.09-.49-.6-.95-1-1.34-5.82-5.72-11.65-11.42-17.48-17.14-.5-.49-1.04-.97-1.47-1.52-.67-.86-.56-2.27.16-3.02.76-.8 2-.93 2.99-.25.42.29.77.67 1.14 1.03 4.92 4.81 9.83 9.61 14.74 14.42.45.44.93.85 1.55 1.43 1.25-4.56 3.34-8.48 6.62-11.83-2.06-2.59-4.06-5.1-6.05-7.61-3.4-4.27-6.81-8.54-10.21-12.81-.24-.3-.51-.58-.71-.91-.62-1.08-.43-2.19.47-2.96.93-.79 2.21-.77 3.14.11.42.39.75.88 1.11 1.33 5.1 6.37 10.19 12.75 15.28 19.12.16.2.34.37.63.69 3.91-2.63 8.27-3.98 13.16-4.32-.38-.67-.63-1.17-.93-1.63-3.73-5.77-7.47-11.54-11.21-17.31-.35-.54-.72-1.07-.97-1.66-.43-1.02-.07-2.12.79-2.73.89-.63 2.21-.54 3 .27.35.36.62.82.9 1.25 4.44 6.85 8.92 13.67 13.27 20.57.86 1.37 1.88 2.17 3.4 2.47.49.1.97.28 1.73.51-.19-.74-.31-1.33-.5-1.89-4.56-13.23-9.13-26.46-13.7-39.68-.19-.55-.43-1.09-.52-1.65-.22-1.28.44-2.34 1.62-2.7 1.11-.34 2.14.1 2.72 1.23.26.51.42 1.08.61 1.62 5.2 15.05 10.39 30.09 15.59 45.14.37 1.09.66 2.23 2.01 2.76m-19.01 37.6c9.56 1.26 20.15-5.64 21.46-17.26 1.2-10.67-6.77-20.44-17.46-21.54-10.72-1.1-20.55 6.82-21.49 17.51-1.08 12.15 8.33 20.62 17.49 21.29z"/><path class="st4" d="M266 207.64v-5.2a13.53 13.53 0 0 0-.69-3.67c-.31-1-.77-1.96-1.36-2.83a30.57 30.57 0 0 0-2.06-2.77c-1.71-2.06-3.42-4-5.12-5.72-1.71-1.73-3.5-3.55-5.29-5.29-1.8-1.75-3.63-3.63-5.5-5.63-1.88-2.01-3.85-4.27-5.89-6.7-2.11-2.25-3.5-5.07-4-8.11-.44-3.35-.64-6.74-.59-10.12v-21.17c0-15.46 7.27-23.19 21.81-23.18 7.85 0 13.36 1.92 16.56 5.71a26.654 26.654 0 0 1 4.78 17.47v25.61h-12.11v-23.91c.13-2.95-.49-5.88-1.79-8.53a7.401 7.401 0 0 0-7.09-3.25c-5.99 0-8.99 3.36-8.99 10.08v20.79c-.09 2.16.11 4.33.6 6.44.54 1.57 1.38 3.02 2.48 4.27 3.12 4.1 6.54 7.97 10.23 11.57 3.86 3.56 7.48 7.37 10.85 11.4 2.33 2.64 4.02 5.78 4.94 9.18.92 4.32 1.32 8.74 1.2 13.15v20.11c.4 6.1-1.37 12.15-4.99 17.08a20.95 20.95 0 0 1-16.82 5.93c-6.15.57-12.25-1.6-16.65-5.93a25.297 25.297 0 0 1-5.2-17.08v-29.88h12.47v27.97c-.13 3.07.56 6.11 2 8.83.73 1.16 1.77 2.1 3 2.72 1.24.6 2.62.84 4 .7a8.45 8.45 0 0 0 3.86-.49 8.55 8.55 0 0 0 3.24-2.16c1.59-2.25 2.35-4.98 2.14-7.72l-.02-19.67zm61.31-73.25c.29-3.31-.62-6.61-2.56-9.31-2.29-2.17-5.4-3.26-8.54-3h-8.88v47.66h8.99c3.13.3 6.24-.75 8.54-2.9a13.34 13.34 0 0 0 2.73-9.4v-23.27l-.28.22zm-33.13 114.58V108.82h21.97a24.28 24.28 0 0 1 18.23 6.14 26.945 26.945 0 0 1 5.89 19.26v22.97c0 8.88-1.93 15.28-5.81 19.26-5 4.38-11.56 6.55-18.19 5.99h-9.09v66.6l-13-.07zm84.14-35.44c-1.5-12.04-2.93-23.99-4.26-35.86-1.34-11.87-2.76-23.88-4.27-36.03-1.48 12.15-2.99 24.15-4.52 36.03-1.54 11.87-3.1 23.83-4.69 35.86h17.74zm4.62 35.44l-3.08-23.48h-20.98l-3.08 23.48h-12.83l19.3-140.15h15.28l18.23 140.19-12.84-.04zm54.38-51.44h11.79v28.97c.5 6.43-1.21 12.84-4.86 18.16a19.26 19.26 0 0 1-15.76 5.68c-14.91 0-22.36-7.9-22.36-23.69v-95.21c0-16.14 7.45-24.21 22.36-24.2 13.66 0 20.5 7.95 20.5 23.86v24.85h-11.66v-24.68c.22-2.89-.45-5.78-1.92-8.28a7.882 7.882 0 0 0-6.88-2.65c-6.18 0-9.3 3.67-9.3 10.93v95.41c0 7.38 3.12 11.06 9.3 11.06a7.93 7.93 0 0 0 6.83-2.74c1.49-2.51 2.19-5.41 2-8.32l-.04-29.15zm26.97 51.44V108.82h37.1v13.1h-24.25v49.09h17.07v13.1h-17.07v52.13h25.1v12.8h-38.09l.14-.07zm110.44-35.44c-1.5-12.04-2.93-23.99-4.26-35.86-1.34-11.87-2.76-23.88-4.26-36.03-1.5 12.15-3.01 24.15-4.52 36.03-1.51 11.87-3.08 23.83-4.7 35.86h17.74zm4.61 35.44l-3.08-23.48h-20.98l-3.07 23.48h-12.87l19.3-140.15h15.28l18.28 140.19-12.86-.04zm59.04-114.79c.27-3.31-.64-6.6-2.56-9.31-1.14-1.08-2.51-1.9-4-2.41a10.81 10.81 0 0 0-4.58-.58h-8.88v47.94h9.05c1.55.15 3.1-.04 4.57-.54 1.48-.5 2.84-1.3 4-2.36 2.05-2.68 3.03-6.03 2.74-9.4v-23.35l-.34.01zM605.1 248.97V108.82h21.97a24.2 24.2 0 0 1 18.23 6.14 26.947 26.947 0 0 1 5.93 19.26v22.97c0 8.88-2 15.28-5.85 19.26-5 4.38-11.56 6.55-18.19 5.99h-9.09v66.6l-13-.07zm92.34-114.79c.27-3.31-.64-6.61-2.57-9.31a11.072 11.072 0 0 0-3.95-2.41c-1.47-.52-3.04-.72-4.59-.58h-8.88v47.94h9.06c1.55.15 3.1-.04 4.57-.54 1.48-.5 2.84-1.3 4-2.36 2.06-2.68 3.04-6.03 2.74-9.4v-23.35l-.38.01zm-33.13 114.79V108.82h21.97a24.28 24.28 0 0 1 18.23 6.14c4.44 5.39 6.61 12.3 6.06 19.26v22.97c0 8.88-2 15.28-5.85 19.26-5 4.38-11.56 6.54-18.18 5.99h-9.1v66.6l-13.13-.07zm88.25-41.33v-5.2c-.08-1.25-.31-2.48-.69-3.67-.33-1-.79-1.95-1.36-2.83a30.46 30.46 0 0 0-2.05-2.77c-1.72-2.06-3.42-4-5.12-5.72-1.71-1.73-3.51-3.55-5.29-5.29-1.79-1.75-3.72-3.72-5.55-5.63-1.84-1.92-3.85-4.27-5.89-6.7a15.916 15.916 0 0 1-4-8.11c-.44-3.35-.64-6.74-.59-10.12v-21.17c0-15.46 7.27-23.19 21.81-23.18 7.85 0 13.36 1.92 16.56 5.71a26.654 26.654 0 0 1 4.78 17.47v25.61h-12.11v-23.91c.13-2.95-.49-5.88-1.8-8.53a7.394 7.394 0 0 0-7.08-3.25c-5.99 0-9.01 3.36-9.05 10.08v20.79c-.08 2.16.12 4.33.6 6.44a14.05 14.05 0 0 0 2.48 4.27c3.14 4.12 6.59 7.98 10.33 11.57 3.86 3.56 7.48 7.37 10.85 11.4 2.33 2.64 4.03 5.78 4.94 9.18.92 4.32 1.32 8.74 1.2 13.15v20.11c.4 6.1-1.37 12.15-4.99 17.08-9.74 7.91-23.69 7.91-33.43 0a25.297 25.297 0 0 1-5.2-17.08v-29.88h12.42v27.97c-.1 3.07.58 6.11 2 8.83a7.583 7.583 0 0 0 3.06 2.72c1.24.6 2.62.84 4 .7 1.3.14 2.62-.03 3.85-.49a8.55 8.55 0 0 0 3.24-2.16 12.13 12.13 0 0 0 2.14-7.72l-.06-19.67z"/><path class="st1" d="M253.9 269.63c2.42-.04 4.83.36 7.11 1.18 2.17.82 4.17 2.02 5.93 3.53l-4.82 5.75c-1.13-.92-2.38-1.67-3.73-2.23-1.27-.51-2.63-.76-4-.75a7.993 7.993 0 0 0-6.87 3.66c-1.64 2.42-2.47 6.17-2.47 11.25s.82 8.79 2.47 11.14a8.138 8.138 0 0 0 6.99 3.59c1.47.02 2.92-.28 4.26-.87 1.46-.73 2.85-1.6 4.15-2.6l4.51 5.81a19.475 19.475 0 0 1-5.87 4 18.001 18.001 0 0 1-7.55 1.5c-3.61.09-7.18-.81-10.32-2.6-3-1.82-5.39-4.49-6.87-7.67-1.7-3.87-2.52-8.07-2.41-12.3-.1-4.15.74-8.28 2.48-12.06 1.51-3.18 3.91-5.84 6.92-7.66 3.06-1.81 6.55-2.73 10.09-2.67zm67.47 43.94v-18.41H308.5v18.41h-10.16v-42.85h10.16v16.57h12.86v-16.61h10.14v42.89h-10.13zm67.15 0l-2.23-9.22H373.8l-2.17 9.22h-10.51l12.91-42.85h12.31l12.92 42.85h-10.74zM375.53 297h8.99l-4.51-18.93-4.48 18.93zm63.44-26.32v34.81h16.69l-1.05 7.99h-25.79v-42.85l10.15.05zm58.14 0v34.81h16.69l-1.05 7.99h-25.83v-42.85l10.19.05zm74.2 0l-1.06 7.23h-15.08v10.26h13.17v7.11h-13.17v10.99h16.14v7.3h-26.26v-42.85l26.26-.04zM637 313.57h-12.92l-12.37-33.21c.42 3.26.73 6.14.93 8.66s.32 5.46.37 8.84v15.71h-8.99v-42.85h12.61l12.67 33.26c-.87-5.28-1.33-10.63-1.36-15.98v-17.32h9.09l-.03 42.89zm52.93-43.94c5.25-.1 10.35 1.78 14.28 5.26l-5.13 5.37c-1.3-1.02-2.73-1.85-4.26-2.48a11.5 11.5 0 0 0-4.45-.8 8.965 8.965 0 0 0-7.6 3.78c-1.91 2.47-2.87 6.24-2.87 11.31 0 5.48.72 9.38 2.17 11.69a7.414 7.414 0 0 0 6.73 3.41c2.03.03 4.03-.46 5.81-1.42v-9.71h-5.56l-1-7.17h16.42v21.2a28.107 28.107 0 0 1-7.36 3.34c-2.61.78-5.32 1.17-8.04 1.18-6.51 0-11.42-1.9-14.71-5.69-3.3-3.8-4.94-9.4-4.94-16.82-.12-4.19.8-8.35 2.66-12.12 1.65-3.21 4.21-5.88 7.35-7.66 3.2-1.8 6.82-2.72 10.5-2.67zm73.99 1.05l-1 7.23h-15.1v10.26h13.17v7.11h-13.17v10.99h16.14v7.3h-26.32v-42.85l26.28-.04z"/><path class="st5" d="M451.34 86.38h-13.35L425.2 52.05c.42 3.36.75 6.33 1 8.91s.36 5.64.35 9.18v16.24h-9.34V42.07h13.03l13.1 34.4c-.9-5.45-1.37-10.97-1.4-16.5v-17.9h9.39l.01 44.31zm37.98 0l-2.3-9.53h-12.88l-2.24 9.53H461l13.35-44.31h12.76l13.35 44.31h-11.14zM475.9 69.24h9.33l-4.66-19.56-4.67 19.56zm57.11-26.85c2.49.96 4.77 2.42 6.68 4.28l-4.85 5.69a15.111 15.111 0 0 0-9.76-3.71c-1.53-.09-3.05.31-4.34 1.12a3.693 3.693 0 0 0-1.6 3.23c-.04.85.21 1.7.7 2.4a6.58 6.58 0 0 0 2.5 1.76c1.75.77 3.54 1.43 5.36 2 4.51 1.44 7.84 3.23 9.99 5.34 2.14 2.12 3.21 5.11 3.2 8.99.05 2.6-.69 5.15-2.11 7.32a13.75 13.75 0 0 1-6.07 4.91 22.944 22.944 0 0 1-9.4 1.76c-3.29.06-6.56-.52-9.62-1.72-2.66-1.07-5.1-2.63-7.19-4.6l5.3-5.82c1.58 1.36 3.36 2.45 5.29 3.24 1.88.74 3.89 1.11 5.91 1.09 1.83.1 3.63-.41 5.14-1.44a4.76 4.76 0 0 0 1.89-4c.03-.98-.21-1.94-.71-2.79a5.993 5.993 0 0 0-2.43-2c-1.61-.78-3.28-1.42-4.99-1.92-4.9-1.5-8.39-3.33-10.46-5.5-2.09-2.23-3.2-5.19-3.1-8.24-.05-2.41.67-4.77 2.05-6.75 1.44-2 3.41-3.56 5.69-4.48 2.62-1.08 5.42-1.61 8.25-1.57 2.96-.05 5.9.42 8.68 1.41zm43.06 43.99l-2.31-9.53h-12.9l-2.24 9.53h-10.87l13.35-44.31h12.72l13.35 44.31h-11.1zm-13.43-17.14h9.38l-4.71-19.56-4.67 19.56z"/></svg>