<svg id="Capa_1" xmlns="http://www.w3.org/2000/svg" viewBox="0 0 1000 1000"><style>.st0{fill:none;stroke:#fff;stroke-width:10;stroke-miterlimit:10}.st1{fill:#fff}.st2{fill:none;stroke:#000;stroke-width:18;stroke-miterlimit:10}.st3{fill:#e02229}.st4{fill-rule:evenodd;clip-rule:evenodd;fill:#fff}.st5{fill:#ec1c24}</style><path class="st0" d="M373.1 617.15l-18.56 28.87c-1.78 2.77-2.73 6-2.73 9.3v13.94c0 2.67-.62 5.3-1.82 7.69l-17.22 34.43c-3.9 7.81-1.31 17.28 5.98 22.08 1.35.89 2.48 1.73 3.18 2.42 2.36 2.36 1.34 19.87.57 29.65-.34 4.28.93 8.51 3.57 11.9l12.28 15.79a17.205 17.205 0 0 0 17.18 6.26l14.75-3.16c10.71-2.29 20.8 5.87 20.8 16.82v2.78c0 14.87 17.6 22.73 28.68 12.8l60.29-54.06c4.1-3.68 6.19-9.1 5.63-14.57l-7.38-71.35c-.91-8.77-8.29-15.43-17.11-15.43h-43.03c-9.5 0-17.2-7.7-17.2-17.2v-21.57c0-6.51-3.68-12.47-9.51-15.38l-16.2-8.1c-7.85-3.92-17.4-1.3-22.15 6.09z"/><path class="st0" d="M498.3 688.75c-.91-8.77-8.29-15.43-17.11-15.43h-33.95c-22.99 3.29-26.28-11.77-26.28-26.28v-6.88c0-9.95-5.62-19.05-14.53-23.5l-11.18-5.59c-.03-.02-.07-.03-.1-.05-4.8-2.36-6.88-8.04-4.23-12.68l10.96-19.23a9.095 9.095 0 0 1 7.89-4.58h40.88c2.1 0 4.13.73 5.75 2.05l25.95 21.23c4.16 3.4 4.47 9.65.67 13.45l-3.75 3.75c-5.72 5.72-1.67 15.5 6.42 15.5h62.85c5.61 0 9.88 5.04 8.96 10.57l-13.44 80.63a9.084 9.084 0 0 1-8.96 7.59h-24.31c-4.64 0-8.54-3.5-9.03-8.11l-3.46-32.44z"/><path class="st0" d="M599.02 551.24l16.96-16.96c.95-.95.28-2.57-1.06-2.57h-18.79c-.4 0-.78.16-1.06.44l-15.58 15.58c-.28.28-.67.44-1.06.44h-117.3c-.4 0-.78-.16-1.06-.44l-17.23-17.23c-.28-.28-.67-.44-1.06-.44h-49.8c-.4 0-.78-.16-1.06-.44l-19.08-19.08c-.59-.59-1.54-.59-2.13 0l-9.2 9.2c-.28.28-.44.67-.44 1.06v49.72c0 .44.2.87.54 1.15l29.46 24.81c.68.57 1.7.45 2.2-.29 3.34-4.96 8.96-21.68 17.54-21.68h40.34c2.44 0 4.81.85 6.7 2.39l24.24 19.84c4.85 3.97 5.21 11.25.78 15.68-6.67 6.67-8.19 18.07 7.49 18.07h62.73c.4 0 .78-.16 1.06-.44L564 619.2c.94-.94 1.72-2.03 2.31-3.22l31.15-62.57c.4-.8.93-1.53 1.56-2.17z"/><path class="st0" d="M440.73 530.07v-44.46l9.87-6.58h55.99l9.88 16.46h26.34l18.11 18.11v24.7h27.99m-83.17-63.07l-5.67-25.51c-.05-.22-.07-.45-.07-.68v-51.05c0-.83-.33-1.62-.91-2.21l-19.93-19.93a3.114 3.114 0 0 0-4.41 0l-21.93 21.93a3.114 3.114 0 0 0 0 4.41l6.76 6.76c.58.58.91 1.38.91 2.21v34.47c0 .3-.04.61-.13.9l-8.54 28.48c-.6 2 .9 4.02 2.99 4.02h47.9c1.98 0 3.47-1.85 3.03-3.8z"/><path class="st0" d="M453.9 396.7l-32.18-32.18a5.728 5.728 0 0 1 0-8.09l11.67-11.67a5.728 5.728 0 0 1 8.09 0l28.13 28.13a5.728 5.728 0 0 1 0 8.09L453.9 396.7"/><path class="st0" d="M428.16 339.03l-11.8-9.83a7.145 7.145 0 0 0-4.55-1.65h-61.99c-1.89 0-3.69.75-5.03 2.08l-7.84 7.84c-3.3 3.3-2.58 8.84 1.47 11.18l2.91 1.68a7.113 7.113 0 0 0 8.59-1.13l3.11-3.11a7.114 7.114 0 0 1 5.03-2.08h42.49c1.5 0 2.97.48 4.18 1.36l11.33 8.24a7.112 7.112 0 0 0 9.21-.72l3.37-3.37a7.117 7.117 0 0 0-.48-10.49zm208.9 457.78c1.85 0 3.63-.74 4.94-2.05l5.7-5.7c.33-.33.62-.68.87-1.06l11.95-17.93c.45-.68.81-1.42 1.01-2.21 1.89-7.39 18.33-48.59 19.51-51.56.05-.13.09-.23.13-.36l9.46-28.37c.24-.71.36-1.46.36-2.21v-12.04l-1.65-55.98V612c0-1.85-.74-3.63-2.05-4.94l-21.01-21.01a6.983 6.983 0 0 1 0-9.88l6.19-6.19a6.995 6.995 0 0 0 2.05-4.94 6.99 6.99 0 0 0-6.99-6.99H599.8c-2.65 0-5.06 1.49-6.25 3.86l-24.26 48.52c-1.85 3.69-.1 8.17 3.75 9.65l22.74 8.7a6.986 6.986 0 0 1 4.49 6.52v23.43c0 1.85-.74 3.63-2.05 4.94l-17.47 17.47a6.995 6.995 0 0 0-2.05 4.94v43.3c0 1.85-.74 3.63-2.05 4.94L564 747.01a6.995 6.995 0 0 0-2.05 4.94v24.47c0 1.85.74 3.63 2.05 4.94l10.18 10.18c1.81 1.81 4.23 2.87 6.79 2.97l56.09 2.3z"/><path class="st1" d="M420.81 439.04c3.55 5.08 4.76 10.75 3.5 16.87-.93 4.5-3.2 8.28-6.63 11.35-6.65 5.95-17.66 7.92-27.32.9l-3.03-2.82c-1.02-1.73-2.23-3.09-3.99-4.11-12.03-6.99-24.01-14.07-36-21.13-.38-.22-.77-.43-1.12-.7-.85-.66-1.07-1.74-.57-2.65.47-.86 1.56-1.19 2.59-.74.45.2.86.48 1.29.73 10.53 6.19 21.05 12.37 31.58 18.56.46.27.92.52 1.57.88-.16-1.52-.23-2.82-.46-4.1-.08-.42-.52-.81-.86-1.15-4.99-4.9-9.98-9.79-14.97-14.68-.43-.42-.89-.83-1.26-1.3-.57-.74-.48-1.94.13-2.59.65-.69 1.72-.8 2.56-.21.36.25.66.58.98.88 4.21 4.12 8.42 8.24 12.63 12.35.39.38.79.73 1.33 1.22 1.07-3.91 2.86-7.27 5.67-10.13-1.77-2.22-3.48-4.37-5.19-6.52-2.92-3.66-5.83-7.32-8.75-10.98-.21-.26-.44-.5-.6-.78-.53-.92-.37-1.87.4-2.53.79-.68 1.89-.66 2.69.1.36.34.64.75.95 1.14 4.37 5.46 8.73 10.92 13.1 16.38.13.17.29.32.54.59 3.35-2.25 7.08-3.41 11.27-3.7-.33-.57-.54-1-.79-1.4-3.2-4.95-6.4-9.89-9.6-14.83-.3-.46-.62-.92-.83-1.42-.37-.87-.06-1.82.68-2.34.76-.54 1.89-.46 2.57.23.3.31.53.7.77 1.07 3.8 5.87 7.64 11.71 11.37 17.62.74 1.17 1.61 1.86 2.92 2.11.42.08.83.24 1.48.44-.17-.64-.26-1.14-.43-1.62-3.91-11.33-7.82-22.67-11.74-34-.16-.47-.37-.93-.45-1.41-.19-1.1.38-2 1.39-2.31.95-.29 1.83.09 2.33 1.06.22.44.36.92.52 1.39 4.45 12.89 8.9 25.78 13.36 38.68.32.93.56 1.91 1.72 2.37m-16.29 32.2c8.19 1.08 17.27-4.83 18.38-14.79 1.03-9.15-5.8-17.51-14.96-18.45-9.18-.94-17.6 5.84-18.42 15-.91 10.41 7.16 17.67 15 18.24zm-42.87 445.56h-15.31v-9.18h40.59v9.18h-15.31v44.49h-9.98v-44.49zm44.22-9.19h12.25l15.5 53.67h-10.77l-2.65-10.17h-16.4l-2.65 10.17h-10.77l15.49-53.67zm11.95 34.28l-5.48-21.17h-.68l-5.48 21.17h11.64zm22.26-34.28h16.59c11.3 0 17.73 4.8 17.73 13.3 0 6.95-4.54 11.04-12.55 11.38v1.25h1.74c9.3 0 14.59 4.72 14.59 13 0 9.37-6.12 14.74-16.9 14.74h-21.2v-53.67zm16.74 20.72c4.69 0 7.11-2.04 7.11-6.05 0-3.63-2.57-5.48-7.63-5.48h-6.24v11.53h6.76zm2.27 23.77c5.44 0 8.62-2.68 8.62-7.33 0-4.57-3.33-7.22-9.15-7.22h-8.5v14.55h9.03zm37.49-44.49h12.25l15.5 53.67h-10.77l-2.65-10.17h-16.4l-2.65 10.17h-10.77l15.49-53.67zm11.94 34.28l-5.48-21.17h-.68l-5.48 21.17h11.64zm21.09 17.2l1.36-10.21c5.52 2.34 11.19 3.63 15.84 3.63 5.37 0 8.35-1.97 8.35-5.56 0-2.23-1.62-4.27-4.42-5.59l-7.71-3.74c-7.6-3.7-11.98-9.37-11.98-16.03 0-9.37 6.46-14.74 17.8-14.74 6.58 0 12.66 2.38 17.27 6.77l-6.88 7.9c-3.48-3.33-7.11-5.18-10.36-5.18-4.46 0-7.03 1.97-7.03 5.52 0 2.38 1.81 4.54 5.03 6.24l7.26 3.74c7.56 3.93 11.83 9.3 11.83 15.31 0 9.52-7.11 14.89-19.77 14.89-6.08 0-12.05-1.06-16.59-2.95zm43.73-24.72c0-17.46 9-27.52 24.76-27.52 7.11 0 12.85 2.38 15.69 6.62l-5.59 7.29c-2.27-2.8-5.93-4.42-10.02-4.42-8.69 0-14.32 6.39-14.32 17.65 0 12.36 5.52 18.52 16.44 18.52 3.7 0 7.26-.76 10.81-2.27l1.74 9.22c-4.46 1.74-9.07 2.57-13.83 2.57-17.06.01-25.68-9.21-25.68-27.66zm44.97.46c0-18.67 6.88-27.97 20.45-27.97s20.45 9.3 20.45 27.97c0 18.22-6.88 27.21-20.45 27.21s-20.45-9-20.45-27.21zm30.43 0c0-12.36-3.33-18.48-9.98-18.48s-9.98 6.12-9.98 18.48c0 11.83 3.33 17.69 9.98 17.69s9.98-5.86 9.98-17.69z"/><path class="st4" d="M299.52 186.9v-4.46c-.05-1.07-.25-2.13-.59-3.14-.27-.86-.66-1.68-1.16-2.42a26.91 26.91 0 0 0-1.76-2.37c-1.46-1.76-2.93-3.42-4.39-4.9-1.46-1.48-3-3.04-4.54-4.54s-3.11-3.11-4.72-4.83c-1.61-1.72-3.29-3.66-5.05-5.74-1.81-1.92-3-4.34-3.42-6.95-.38-2.87-.55-5.77-.5-8.67v-18.14c0-13.25 6.23-19.87 18.69-19.86 6.73 0 11.45 1.64 14.19 4.89 3.07 4.36 4.52 9.65 4.1 14.97v21.94H300V122.2c.11-2.53-.42-5.04-1.53-7.31a6.32 6.32 0 0 0-6.08-2.78c-5.13 0-7.7 2.88-7.7 8.63v17.81c-.08 1.85.09 3.71.51 5.52.46 1.35 1.18 2.59 2.12 3.66 2.67 3.51 5.6 6.83 8.76 9.91 3.3 3.05 6.41 6.31 9.29 9.76 2 2.26 3.45 4.95 4.24 7.86.79 3.7 1.13 7.49 1.03 11.27v17.23a22.22 22.22 0 0 1-4.28 14.63 17.963 17.963 0 0 1-14.41 5.08c-5.27.49-10.49-1.37-14.27-5.08-3.22-4.17-4.8-9.38-4.46-14.63v-25.6h10.68v23.96c-.11 2.63.48 5.24 1.71 7.56.63 1 1.52 1.8 2.57 2.33 1.06.51 2.25.72 3.42.6 1.12.12 2.25-.02 3.3-.42 1.05-.39 2-1.03 2.77-1.85 1.36-1.92 2.01-4.26 1.83-6.62l.02-16.82zm52.52-62.76c.25-2.84-.53-5.66-2.19-7.98a9.501 9.501 0 0 0-7.32-2.57h-7.61v40.84h7.7c2.68.26 5.35-.65 7.32-2.48a11.43 11.43 0 0 0 2.34-8.05v-19.94l-.24.18zm-28.38 98.17V102.23h18.83c5.71-.47 11.36 1.43 15.62 5.26a23.105 23.105 0 0 1 5.05 16.5v19.68c0 7.61-1.65 13.09-4.98 16.5a20.977 20.977 0 0 1-15.58 5.13h-7.79v57.06l-11.15-.05zm72.09-30.36c-1.29-10.31-2.51-20.56-3.65-30.72-1.15-10.17-2.37-20.46-3.66-30.87-1.27 10.41-2.56 20.7-3.88 30.87-1.32 10.17-2.66 20.41-4.02 30.72h15.21zm3.95 30.36l-2.64-20.12h-17.97l-2.64 20.12h-11L382 102.23h13.09l15.62 120.12-11.01-.04zm46.6-44.07h10.1v24.82c.43 5.51-1.04 11-4.17 15.56-3.52 3.6-8.5 5.39-13.5 4.87-12.77 0-19.16-6.77-19.16-20.3v-81.57c0-13.83 6.39-20.74 19.16-20.74 11.71 0 17.56 6.81 17.56 20.44v21.29h-9.99v-21.15c.18-2.48-.39-4.95-1.64-7.09a6.795 6.795 0 0 0-5.9-2.27c-5.3 0-7.97 3.14-7.97 9.36v81.74c0 6.32 2.67 9.47 7.97 9.47 2.22.23 4.41-.65 5.85-2.34a12.37 12.37 0 0 0 1.71-7.13l-.02-24.96zm23.1 44.07V102.23h31.78v11.23H480.4v42.06h14.63v11.23H480.4v44.66h21.51v10.97h-32.63l.12-.07zm94.63-30.36c-1.29-10.31-2.51-20.56-3.65-30.72-1.15-10.17-2.36-20.46-3.65-30.87-1.29 10.41-2.58 20.7-3.88 30.87-1.3 10.17-2.64 20.41-4.03 30.72h15.21zm3.95 30.36l-2.64-20.12h-17.97l-2.63 20.12h-11.03l16.53-120.08h13.09L579 222.35l-11.02-.04zm50.58-98.35c.23-2.83-.55-5.66-2.19-7.98a9.439 9.439 0 0 0-3.42-2.06c-1.26-.45-2.6-.62-3.93-.5h-7.61v41.08h7.75a9.49 9.49 0 0 0 3.92-.46 9.343 9.343 0 0 0 3.42-2.02c1.76-2.3 2.6-5.17 2.34-8.05v-20.01h-.28zm-28.51 98.35V102.23h18.83c5.71-.48 11.36 1.42 15.62 5.26a23.128 23.128 0 0 1 5.08 16.5v19.68c0 7.61-1.71 13.09-5.01 16.5a20.977 20.977 0 0 1-15.58 5.13h-7.79v57.06l-11.15-.05zm79.12-98.35c.23-2.83-.55-5.66-2.2-7.98a9.418 9.418 0 0 0-3.38-2.06c-1.26-.45-2.6-.62-3.94-.5h-7.61v41.08h7.76a9.49 9.49 0 0 0 3.92-.46 9.483 9.483 0 0 0 3.42-2.02c1.76-2.29 2.6-5.17 2.34-8.05v-20.01h-.31zm-28.39 98.35V102.23h18.83c5.71-.47 11.36 1.43 15.62 5.26 3.8 4.62 5.66 10.53 5.19 16.5v19.68c0 7.61-1.71 13.09-5.01 16.5-4.28 3.75-9.9 5.61-15.58 5.13h-7.8v57.06l-11.25-.05zm75.61-35.41v-4.46c-.07-1.07-.27-2.12-.59-3.14-.28-.85-.67-1.67-1.16-2.42a28.95 28.95 0 0 0-1.75-2.37c-1.47-1.76-2.93-3.42-4.39-4.9-1.46-1.48-3-3.04-4.54-4.54s-3.18-3.18-4.76-4.83c-1.57-1.64-3.29-3.66-5.05-5.74a13.553 13.553 0 0 1-3.42-6.95c-.38-2.87-.55-5.77-.5-8.67v-18.14c0-13.25 6.23-19.87 18.69-19.86 6.73 0 11.45 1.64 14.19 4.89 3.07 4.36 4.52 9.65 4.1 14.97v21.94h-10.37V122.2c.11-2.53-.42-5.04-1.54-7.31a6.303 6.303 0 0 0-6.07-2.78c-5.13 0-7.72 2.88-7.75 8.63v17.81c-.07 1.85.1 3.71.51 5.52a12.17 12.17 0 0 0 2.12 3.66c2.69 3.53 5.65 6.84 8.85 9.91 3.3 3.05 6.41 6.31 9.29 9.76 2 2.26 3.45 4.95 4.24 7.86.79 3.7 1.13 7.49 1.03 11.27v17.23a22.22 22.22 0 0 1-4.28 14.63c-8.34 6.78-20.3 6.78-28.64 0-3.22-4.17-4.8-9.38-4.46-14.63v-25.6h10.64v23.96c-.09 2.63.5 5.23 1.71 7.56.64 1 1.55 1.81 2.62 2.33 1.06.51 2.25.72 3.42.6a7.22 7.22 0 0 0 3.29-.42c1.05-.39 2-1.03 2.77-1.85 1.34-1.93 1.99-4.27 1.83-6.62l-.03-16.82z"/><path class="st1" d="M289.14 240.01c2.08-.03 4.14.31 6.09 1.01 1.86.7 3.58 1.73 5.08 3.02l-4.13 4.93c-.97-.78-2.04-1.43-3.19-1.91a8.915 8.915 0 0 0-3.42-.64 6.857 6.857 0 0 0-5.89 3.13c-1.41 2.08-2.11 5.29-2.11 9.64 0 4.35.7 7.53 2.11 9.54a6.942 6.942 0 0 0 5.99 3.07c1.26.02 2.5-.24 3.65-.74a21.81 21.81 0 0 0 3.55-2.23l3.87 4.98c-1.45 1.44-3.16 2.6-5.03 3.42a15.33 15.33 0 0 1-6.47 1.28c-3.09.07-6.15-.7-8.84-2.23a15.222 15.222 0 0 1-5.89-6.57 24.603 24.603 0 0 1-2.06-10.53c-.09-3.56.64-7.09 2.12-10.33 1.29-2.72 3.35-5.01 5.93-6.56 2.62-1.54 5.61-2.33 8.64-2.28zm57.81 37.65v-15.77h-11.02v15.77h-8.7v-36.71h8.7v14.2h11.02v-14.23h8.69v36.75h-8.69zm57.54 0l-1.91-7.9h-10.7l-1.86 7.9h-9l11.07-36.71h10.54l11.07 36.71h-9.21zm-11.13-14.19h7.7l-3.87-16.22-3.83 16.22zm54.35-22.55v29.82h14.3l-.9 6.85h-22.1v-36.71l8.7.04zm49.81 0v29.82h14.3l-.9 6.85H488.8v-36.71l8.72.04zm63.58 0l-.91 6.2h-12.92v8.79h11.29V262h-11.29v9.41h13.83v6.26h-22.5v-36.71l22.5-.04zm56.28 36.74H606.3l-10.59-28.45c.36 2.79.62 5.26.8 7.42.17 2.16.28 4.68.32 7.57v13.46h-7.7v-36.71h10.8l10.86 28.5a86.04 86.04 0 0 1-1.16-13.69v-14.84h7.79l-.04 36.74zm45.35-37.65a18 18 0 0 1 12.24 4.51l-4.4 4.6a15.13 15.13 0 0 0-3.65-2.12 9.755 9.755 0 0 0-3.82-.68 7.705 7.705 0 0 0-6.51 3.23c-1.64 2.12-2.46 5.35-2.46 9.69 0 4.7.62 8.03 1.86 10.01a6.367 6.367 0 0 0 5.77 2.92c1.74.03 3.45-.39 4.98-1.22v-8.32h-4.77l-.86-6.14h14.07v18.17a23.962 23.962 0 0 1-6.31 2.86 24.04 24.04 0 0 1-6.89 1.01c-5.58 0-9.78-1.63-12.61-4.88-2.82-3.25-4.24-8.06-4.24-14.41-.1-3.59.68-7.16 2.28-10.38 1.42-2.75 3.61-5.03 6.3-6.56 2.76-1.54 5.87-2.33 9.02-2.29zm63.39.91l-.86 6.2h-12.94v8.79h11.29V262h-11.29v9.41h13.83v6.26H703.6v-36.71l22.52-.04z"/><path class="st5" d="M458.31 83.01h-11.44L435.91 53.6c.36 2.88.64 5.43.86 7.63s.31 4.83.3 7.86V83h-8V45.05h11.17l11.23 29.47c-.77-4.67-1.17-9.4-1.2-14.14V45.05h8.04v37.96zm32.54 0l-1.97-8.16h-11.04l-1.92 8.16h-9.34l11.44-37.96h10.94l11.44 37.96h-9.55zm-11.5-14.68h7.99l-4-16.76-3.99 16.76zm48.93-23.01c2.14.83 4.08 2.08 5.73 3.67l-4.16 4.88a12.855 12.855 0 0 0-8.36-3.17c-1.31-.07-2.61.26-3.72.96-.91.62-1.43 1.67-1.37 2.76-.03.73.18 1.45.6 2.05a5.76 5.76 0 0 0 2.14 1.51c1.5.66 3.03 1.23 4.6 1.71 3.87 1.24 6.72 2.76 8.56 4.58 1.84 1.81 2.75 4.38 2.74 7.7.04 2.22-.59 4.41-1.81 6.27-1.29 1.88-3.1 3.34-5.2 4.21a19.837 19.837 0 0 1-8.05 1.51c-2.82.05-5.62-.45-8.24-1.47-2.28-.92-4.37-2.26-6.16-3.95l4.54-4.99c1.35 1.17 2.88 2.1 4.54 2.77 1.61.63 3.33.95 5.07.93 1.56.09 3.11-.35 4.41-1.23 1.07-.8 1.67-2.09 1.62-3.42.03-.84-.18-1.67-.61-2.39a5.084 5.084 0 0 0-2.08-1.71 26.41 26.41 0 0 0-4.28-1.64c-4.2-1.28-7.19-2.86-8.96-4.72a9.825 9.825 0 0 1-2.65-7.06c-.04-2.07.57-4.09 1.75-5.78 1.23-1.71 2.92-3.05 4.88-3.84 2.24-.92 4.65-1.38 7.07-1.34 2.5-.06 5.02.35 7.4 1.2zm36.89 37.69l-1.98-8.16h-11.06l-1.92 8.16h-9.31l11.44-37.96h10.9l11.44 37.96h-9.51zm-11.5-14.68h8.04l-4.04-16.76-4 16.76z"/></svg>